<?xml version="1.0" encoding="utf-8"?>
<svg version="1.1" id="Слой_1" xmlns="http://www.w3.org/2000/svg" xmlns:xlink="http://www.w3.org/1999/xlink" x="0px" y="0px"
viewBox="0 0 27 26" style="enable-background:new 0 0 27 26;" xml:space="preserve">
<style type="text/css">
.st0{fill:#00b2ff;}
</style>
<path class="st0" d="M13.9,11c1,0,1.8-0.8,1.8-1.7c0-0.9-0.8-1.8-1.8-1.8c-1,0-1.8,0.8-1.8,1.7C12.1,10.2,12.9,11,13.9,11z"/>
<path class="st0" d="M13.7,0C6.4,0,0.5,5.8,0.5,13c0,7.2,5.9,13,13.2,13c7.3,0,13.2-5.8,13.2-13C26.9,5.8,21,0,13.7,0z M13.9,4.9	c2.4,0,4.3,1.9,4.3,4.3c0,2.4-2,4.3-4.4,4.3c-2.4,0-4.3-1.9-4.3-4.3C9.5,6.8,11.5,4.9,13.9,4.9z M18.7,14.9	C18.7,15,18.7,15,18.7,14.9c-0.1,0.5-0.3,0.8-0.6,1c-0.2,0.1-0.4,0.3-0.7,0.4c-0.6,0.3-1.2,0.5-1.8,0.6c-0.1,0-0.1,0,0,0.1	c0.3,0.3,0.7,0.7,1,1c0.4,0.4,0.9,0.9,1.3,1.3c0.6,0.6,0.5,1.6-0.3,2c-0.1,0.1-0.3,0.1-0.4,0.1c-0.1,0-0.2,0-0.2,0c0,0,0,0,0,0	c-0.3,0-0.5-0.2-0.8-0.4c-0.8-0.7-1.5-1.5-2.3-2.2c-0.1-0.1-0.1-0.1-0.1,0c-0.8,0.8-1.5,1.5-2.3,2.3c-0.1,0.1-0.3,0.2-0.4,0.3	c-0.1,0.1-0.2,0.1-0.4,0.1c-0.1,0-0.2,0-0.2,0c0,0-0.1,0-0.1,0c-0.5-0.1-0.8-0.4-1-0.9c-0.2-0.5,0-0.9,0.3-1.3	c0.3-0.3,0.6-0.6,0.9-0.9c0.5-0.5,0.9-0.9,1.4-1.4c0.1-0.1,0.1-0.1,0-0.1c0,0-0.1,0-0.1,0c-0.8-0.2-1.6-0.5-2.4-1	C9.2,15.7,9,15.3,9,14.8c0.1-0.9,1.1-1.4,1.9-0.9c0.2,0.1,0.3,0.2,0.5,0.2c0.9,0.4,1.8,0.6,2.7,0.6c0.5,0,0.9-0.1,1.4-0.3	c0.5-0.1,0.8-0.4,1.3-0.6c0.7-0.4,1.6-0.1,1.8,0.6c0,0.1,0.1,0.2,0.1,0.3C18.7,14.8,18.7,14.9,18.7,14.9z"/>
</svg>
