<svg xmlns="http://www.w3.org/2000/svg" viewBox="0 0 18 18"><path d="M14.2 11.2c-.4-.4-.8-.6-1.3-.6s-.9.2-1.3.6l-1.2 1.2c-.1-.1-.2-.1-.3-.2-.1-.1-.2-.1-.3-.2-1.1-.7-2.1-1.6-3.1-2.8-.5-.7-.9-1.2-1.1-1.7l.9-.9.3-.3c.8-.8.8-1.8 0-2.6l-1-1c-.1-.2-.3-.3-.4-.4-.2-.2-.4-.5-.7-.7-.4-.4-.8-.6-1.3-.6-.4 0-.9.2-1.3.6L.8 2.9C.4 3.4.1 4 0 4.7c-.1 1.1.2 2.1.5 2.8.6 1.7 1.5 3.2 2.9 4.8 1.7 2 3.7 3.6 6 4.7.9.4 2 .9 3.3 1h.2c.9 0 1.6-.3 2.2-.9.2-.2.4-.5.7-.7l.5-.5c.4-.4.6-.8.6-1.3s-.2-.9-.6-1.3l-2.1-2.1zm1.4 4c-.1.2-.3.3-.5.5s-.5.5-.7.8c-.4.3-.8.5-1.4.5h-.2c-1.1-.1-2.2-.5-3-.9-2.2-1-4-2.5-5.6-4.4-1.3-1.6-2.2-3-2.7-4.6-.4-.9-.5-1.6-.5-2.3 0-.4.2-.8.5-1.1l1.3-1.3c.2-.2.4-.3.6-.3.2 0 .4.1.6.3.2.2.5.4.7.6l.4.4 1 1c.4.4.4.8 0 1.2l-.3.3c-.3.3-.6.6-1 .9-.3.4-.3.7-.2.9.3.7.7 1.3 1.2 2C6.9 11 8 12 9.2 12.8c.2.2.3.2.5.3.1.1.3.1.4.2.1.1.3.1.4.1.3 0 .5-.2.6-.3l1.3-1.3c.1-.1.3-.3.6-.3.2 0 .4.1.5.3l2.1 2.1c.4.4.4.8 0 1.3zM9.7 4.3c1 .2 1.9.6 2.6 1.4.7.7 1.2 1.6 1.4 2.6 0 .3.3.4.5.4h.1c.3 0 .5-.3.4-.6-.2-1.2-.8-2.3-1.6-3.2-.9-.9-2-1.4-3.2-1.6-.3 0-.5.1-.6.4 0 .3.1.5.4.6zM18 7.9c-.3-2-1.3-3.8-2.7-5.2S12 .3 10 0c-.2 0-.5.1-.5.4-.1.3.1.6.4.6 1.8.3 3.4 1.1 4.7 2.4 1.3 1.3 2.1 2.9 2.4 4.7 0 .3.3.4.5.4h.1c.3 0 .4-.3.4-.6z" fill="#fff"/></svg>