<?xml version="1.0" encoding="utf-8"?>
<svg version="1.1" id="Слой_1" xmlns="http://www.w3.org/2000/svg" xmlns:xlink="http://www.w3.org/1999/xlink" x="0px" y="0px"
viewBox="0 0 36 31" style="enable-background:new 0 0 36 31;" xml:space="preserve">
<style type="text/css">
.st0{fill:#ffffff;}
</style>
<path class="st0" d="M18,9.8c-0.4,0-0.7,0.3-0.7,0.7c0,0.4,0.3,0.7,0.7,0.7s0.7-0.3,0.7-0.7C18.7,10.1,18.4,9.8,18,9.8z"/><path class="st0" d="M33.9,14h-2.7c-1.4-4.1-3.5-11.4-7.3-13.5c-1.9-1-3.7-0.3-4.4,1.1c-0.3,0.6-0.9,0.9-1.5,0.9	c-0.6,0-1.2-0.3-1.5-0.9c-0.7-1.4-2.4-2.2-4.2-1.3C8.5,2.3,6.3,9.8,4.8,14H2.1C0.9,14,0,15,0,16.1c0,1.2,0.9,2.1,2.1,2.1h31.8	c1.2,0,2.1-1,2.1-2.1C36,15,35.1,14,33.9,14z M7.3,11.2h7.9c0.4,0,0.7-0.3,0.7-0.7c0-0.4-0.3-0.7-0.7-0.7H7.8	c2.1-5.9,4.1-7.6,5.1-8.1c1.1-0.5,2-0.1,2.3,0.6C15.8,3.4,16.8,4,18,4c1.2,0,2.2-0.7,2.7-1.8c0.3-0.7,1.3-1.1,2.4-0.5	c1,0.6,3,2.3,5,8h-7.4c-0.4,0-0.7,0.3-0.7,0.7s0.3,0.7,0.7,0.7h7.9c0.4,1,0.7,2.1,1,2.8H6.3C6.6,13.3,7,12.2,7.3,11.2z M33.9,16.8	H2.1c-0.4,0-0.7-0.3-0.7-0.7c0-0.4,0.3-0.7,0.7-0.7h31.8c0.4,0,0.7,0.3,0.7,0.7C34.6,16.5,34.3,16.8,33.9,16.8z"/><path class="st0" d="M16.6,21.1H5.3c-0.4,0-0.7,0.3-0.7,0.7v2.8c0,3.5,2.8,6.4,6.3,6.4c2.6,0,5-1.6,5.9-4.1c0.7-0.3,1.5-0.3,2.2,0	C20,29.4,22.4,31,25,31c3.5,0,6.3-2.9,6.3-6.4v-2.8c0-0.4-0.3-0.7-0.7-0.7H19.4c-0.4,0-0.7,0.3-0.7,0.7v0.7h-1.4v-0.7	C17.3,21.4,17,21.1,16.6,21.1z M11,29.6c-2.7,0-4.9-2.2-4.9-5v-2.1h9.8v2.1C15.9,27.4,13.7,29.6,11,29.6z M20.1,22.5H30v2.1	c0,2.7-2.2,5-4.9,5c-2.7,0-4.9-2.2-4.9-5V22.5z M18.7,23.9v0.7c0,0.2,0,0.5,0,0.7c-0.5-0.1-1-0.1-1.5,0c0-0.2,0-0.4,0-0.7v-0.7H18.7	z"/><path class="st0" d="M11,26.8c-1.2,0-2.1-1-2.1-2.1c0-0.4-0.3-0.7-0.7-0.7c-0.4,0-0.7,0.3-0.7,0.7c0,2,1.6,3.5,3.5,3.5	c0.4,0,0.7-0.3,0.7-0.7C11.7,27.1,11.4,26.8,11,26.8z"/><path class="st0" d="M25,28.2c1.9,0,3.5-1.6,3.5-3.5c0-0.4-0.3-0.7-0.7-0.7c-0.4,0-0.7,0.3-0.7,0.7c0,1.2-0.9,2.1-2.1,2.1	c-0.4,0-0.7,0.3-0.7,0.7C24.3,27.9,24.6,28.2,25,28.2z"/>
</svg>
