<svg version="1.1" id="Слой_1" xmlns="http://www.w3.org/2000/svg" x="0" y="0" viewBox="0 0 35 35" xml:space="preserve"><style>.st0{fill:#fff}</style><path class="st0" d="M11.1 8.6c-.1-.1-.3-.2-.5-.2s-.4.1-.5.2c-.1.1-.2.3-.2.5s.1.4.2.5c.1.1.3.2.5.2s.4-.1.5-.2c.1-.1.2-.3.2-.5s-.1-.4-.2-.5z"/><path class="st0" d="M34.8 2.9L34 2l.8-.8c.3-.3.3-.7 0-1-.3-.3-.7-.3-1 0L33 1l-.8-.8c-.2-.1-.3-.2-.5-.2H20.1c-.9 0-1.8.4-2.4 1l-5.8 5.8c-.3.3-.3.7 0 1 .3.3.7.3 1 0L18.6 2c.4-.4.9-.6 1.5-.6h11.3l.6.6-2.5 2.5c-1.1-.6-2.5-.5-3.4.5-.5.5-.8 1.2-.8 2s.3 1.5.8 2 1.3.8 2 .8 1.4-.3 2-.8c.9-1 1-2.4.4-3.5L33 3l.6.6v11.3c0 .5-.2 1.1-.6 1.5L16.3 33c-.4.4-.9.6-1.5.6-.5 0-1.1-.2-1.5-.6L2 21.6c-.4-.4-.6-.9-.6-1.5s.2-1.1.6-1.4l7.4-7.4c.3-.3.3-.7 0-1-.3-.3-.7-.3-1 0L1 17.7c-.6.6-1 1.5-1 2.4s.4 1.8 1 2.4L12.5 34c.7.7 1.5 1 2.4 1 .9 0 1.8-.3 2.4-1L34 17.3c.6-.6 1-1.5 1-2.4V3.3c0-.1-.1-.3-.2-.4zM29.1 8c-.3.3-.6.4-1 .4s-.7-.1-1-.4c-.6-.6-.6-1.5 0-2 .3-.3.6-.4 1-.4.1 0 .3 0 .4.1l-.8.8c-.3.3-.3.7 0 1 .1.1.3.2.5.2s.3-.1.5-.2l.8-.8c.1.3-.1.9-.4 1.3z"/><path class="st0" d="M29.2 13.8l-8-8c-1.1-1.1-2.8-1.1-3.8 0L4.8 18.4c-.5.5-.8 1.2-.8 1.9s.3 1.4.8 1.9l8 8c.5.5 1.2.8 1.9.8s1.4-.3 1.9-.8l12.6-12.6c.5-.5.8-1.2.8-1.9s-.3-1.4-.8-1.9zm-1 2.8L15.6 29.2c-.3.3-.6.4-.9.4-.4 0-.7-.1-.9-.4l-8-8c-.3-.3-.4-.6-.4-.9 0-.4.1-.7.4-.9L18.4 6.8c.3-.3.6-.4.9-.4s.7.1.9.4l8 8c.3.3.4.6.4.9 0 .3-.1.7-.4.9z"/><path class="st0" d="M22.3 13.7c.3-.3.3-.7 0-1-.3-.3-.7-.3-1 0l-.4.4c-1.1-.6-2.4-.6-3.3.3-.5.5-.8 1.2-.7 1.9 0 .7.3 1.4.9 1.9.5.6.6 1.4.1 1.9s-1.3.4-1.9-.1c-.6-.6-.6-1.4-.1-1.9.3-.3.3-.7 0-1-.3-.3-.7-.3-1 0-.9.9-.9 2.2-.3 3.3l-.5.5c-.3.3-.3.7 0 1 .1.1.3.2.5.2s.3-.1.5-.2l.5-.5c.5.3 1 .4 1.5.4.7 0 1.3-.2 1.8-.7 1-1 .9-2.7-.1-3.8-.3-.3-.4-.6-.5-1 0-.3.1-.6.3-.9.5-.5 1.3-.4 1.9.1.5.6.6 1.4.1 1.9-.3.3-.3.7 0 1 .1.1.3.2.5.2s.3-.1.5-.2c.9-.9.9-2.2.3-3.3l.4-.4zM15.4 25l-3.5-3.5c-.3-.3-.7-.3-1 0-.3.3-.3.7 0 1l3.5 3.5c.1.1.3.2.5.2s.3-.1.5-.2c.2-.3.2-.7 0-1zM10 19.6c-.1-.1-.3-.2-.5-.2s-.4.1-.5.2c-.1.1-.2.3-.2.5s.1.4.2.5c.1.1.3.2.5.2s.4-.1.5-.2c.1-.1.2-.3.2-.5s-.1-.3-.2-.5z"/></svg>