<svg version="1.1" id="Слой_1" xmlns="http://www.w3.org/2000/svg" x="0" y="0" viewBox="0 0 35 35" xml:space="preserve"><style>.st0{fill:#fff}</style><path class="st0" d="M31.3 27.9c.4-.5.6-1.2.6-1.8V22c0-.4-.3-.7-.7-.7h-3.1c-1.4 0-2.6 1.1-2.6 2.6v2.2c0 .7.2 1.3.6 1.8-.5.1-.9.2-1.3.4-.9-1.4-2.5-2.4-4.3-2.6.6-.7 1-1.7 1-2.7v-5.6c0-.4-.3-.7-.7-.7h-4.2c-1.8 0-3.2 1.5-3.2 3.2v3c0 1 .4 2 1 2.7-1.8.2-3.3 1.1-4.3 2.6-.4-.2-.9-.4-1.3-.4.4-.5.6-1.2.6-1.8v-4.1c0-.4-.3-.7-.7-.7h-3c-1.4 0-2.6 1.1-2.6 2.6V26c0 .7.2 1.3.6 1.8-2.1.4-3.7 2.3-3.7 4.5v2c0 .4.3.7.7.7h33.6c.4 0 .7-.3.7-.7v-2c0-2.2-1.6-4.1-3.7-4.4zM4.5 23.8c0-.7.5-1.2 1.2-1.2h2.4v.8c0 .4-.3.7-.7.7H4.5v-.3zm0 1.8h2.8c.3 0 .5 0 .7-.1v.6c0 1-.8 1.8-1.8 1.8s-1.8-.8-1.8-1.8v-.5zm2.2 3.6l-.4.4-.4-.4h.8zm2.5 2.4v2.1H1.4v-1.3c0-1.5 1.1-2.8 2.6-3l1.8 1.8c.1.1.3.2.5.2s.4-.1.5-.2l1.9-1.9.9.3c-.3.6-.4 1.3-.4 2zm8.3-5.8c-1.5 0-2.7-1.2-2.7-2.7v-.9h4.1c.5 0 .9-.1 1.3-.3v1.2c0 1.5-1.2 2.7-2.7 2.7zm1.2 1.3l-1.2 1.2-1.2-1.2h2.4zm-3.9-7c0-1 .8-1.9 1.9-1.9h3.5v1.4c0 .7-.6 1.3-1.3 1.3h-4.1v-.8zm9.6 13.5H10.6v-1.4H15c.4 0 .7-.3.7-.7 0-.4-.3-.7-.7-.7h-4.4c.3-1.9 1.8-3.5 3.8-3.7l2.6 2.6c.1.1.3.2.5.2s.3-.1.5-.2l2.6-2.6c2.2.3 3.9 2.2 3.9 4.4v2.1zm2.5-9.8c0-.7.5-1.2 1.2-1.2h2.4v.8c0 .4-.3.7-.7.7H27v-.3zm0 1.8h2.8c.3 0 .5 0 .7-.1v.6c0 1-.8 1.8-1.8 1.8s-1.8-.8-1.8-1.8v-.5zm2.3 3.6l-.4.4-.4-.4h.8zm-3.4 4.4v-2.1c0-.7-.1-1.4-.4-2 .3-.2.6-.3.9-.3l1.9 1.9c.1.1.3.2.5.2s.4-.1.5-.2l1.8-1.8c1.5.2 2.6 1.5 2.6 3v1.3h-7.8zM20.9 4.5c-.3-.3-.7-.3-1 0l-3.4 3.4L15 6.4c-.3-.3-.7-.3-1 0-.3.3-.3.7 0 1l1.9 1.9c.1.1.3.2.5.2s.4-.1.5-.2l3.8-3.8c.4-.3.4-.8.2-1z"/><path class="st0" d="M20.3.6c-.3-.2-.7 0-.9.3-.2.3 0 .7.3.9 2 .9 3.3 2.9 3.3 5 0 3-2.5 5.5-5.5 5.5S12 9.8 12 6.8c0-2.2 1.3-4.1 3.2-5 .3-.2.5-.6.3-.9-.2-.3-.6-.5-.9-.3-2.5 1.1-4 3.6-4 6.3 0 3.8 3.1 6.9 6.9 6.9 3.8 0 6.9-3.1 6.9-6.9 0-2.7-1.6-5.2-4.1-6.3z"/><path class="st0" d="M17.5 0c-.4 0-.7.3-.7.7 0 .4.3.7.7.7.4 0 .7-.3.7-.7 0-.4-.3-.7-.7-.7zm.5 31.1c-.1-.1-.3-.2-.5-.2s-.4.1-.5.2c-.1.1-.2.3-.2.5s.1.4.2.5c.1.1.3.2.5.2s.4-.1.5-.2c.1-.1.2-.3.2-.5s-.1-.4-.2-.5z"/></svg>