<?xml version="1.0" encoding="utf-8"?>
<svg version="1.1" id="Слой_1" xmlns="http://www.w3.org/2000/svg" xmlns:xlink="http://www.w3.org/1999/xlink" x="0px" y="0px"
viewBox="0 0 19 14" style="enable-background:new 0 0 19 14;" xml:space="preserve">
<style type="text/css">
.st0{fill:#ffffff;}
</style>
<path class="st0" d="M16.7,0H2.3C1,0,0,1,0,2.2v9.5C0,13,1,14,2.3,14h14.4c1.3,0,2.3-1,2.3-2.2V2.3C19,1,18,0,16.7,0z M17.9,11.8	c0,0.7-0.6,1.2-1.3,1.2H2.3c-0.7,0-1.3-0.5-1.3-1.2V2.3C1.1,1.6,1.6,1,2.3,1h14.4c0.7,0,1.3,0.5,1.3,1.2L17.9,11.8L17.9,11.8z"/><path class="st0" d="M12,6.9l4.6-4c0.2-0.2,0.2-0.5,0-0.7c-0.2-0.2-0.5-0.2-0.8,0L9.5,7.7L8.3,6.6c0,0,0,0,0,0c0,0-0.1,0-0.1-0.1	L3.1,2.1c-0.2-0.2-0.6-0.2-0.8,0c-0.2,0.2-0.2,0.5,0,0.7l4.7,4.1l-4.7,4.2c-0.2,0.2-0.2,0.5,0,0.7c0.1,0.1,0.2,0.2,0.4,0.2	c0.1,0,0.3,0,0.4-0.1l4.8-4.3l1.3,1.1c0.1,0.1,0.2,0.1,0.4,0.1s0.3,0,0.4-0.1l1.3-1.1l4.7,4.3c0.1,0.1,0.2,0.1,0.4,0.1	c0.1,0,0.3-0.1,0.4-0.2c0.2-0.2,0.2-0.5,0-0.7L12,6.9z"/>
</svg>
