<?xml version="1.0" encoding="utf-8"?>
<svg version="1.1" id="Слой_1" xmlns="http://www.w3.org/2000/svg" xmlns:xlink="http://www.w3.org/1999/xlink" x="0px" y="0px"
viewBox="0 0 27 26" style="enable-background:new 0 0 27 26;" xml:space="preserve">
<style type="text/css">
.st0{fill:#00b2ff;}
</style>
<path class="st0" d="M19.5,15.1c-1.1-1-1.2-1-0.2-2.2c1.2-1.5,2.8-3.4,1.3-3.4H18c-0.5,0-0.6,0.3-0.7,0.7c-0.6,1.5-1.9,3.5-2.4,3.2	c-0.5-0.3-0.2-1.5-0.2-3.4c0.1-0.2,0-0.5-0.2-0.6c-0.2-0.2-0.4-0.3-0.6-0.3c-0.4-0.1-0.8-0.2-1.2-0.2c-1.5,0-2.5,0.6-2,0.7	c1,0.2,1,2.4,0.7,3.3c-0.4,1.7-2-1.3-2.7-2.8C8.6,9.8,8.3,9.5,7.9,9.5H5.9c-0.3,0-0.6,0.1-0.6,0.3c0,0.4,2,4.3,3.8,6.2	c1.8,1.9,3.6,1.7,4.9,1.7c0.2,0,0.3-0.1,0.4-0.2s0.2-0.2,0.2-0.4c0-1.3,0.5-1.9,1.3-1c1,0.9,1.2,1.6,2.4,1.6h2.1	c0.6,0,0.7-0.2,0.7-0.4C21.2,16.9,20.3,15.8,19.5,15.1z M13.9,0C21.2,0.2,27.1,6.1,27,13.2c-0.1,7.2-6.2,12.8-13.5,12.8	C6,25.9,0.1,20.2,0.1,13C0.1,5.8,6.3-0.1,13.9,0z"/>
</svg>
