<svg version="1.1" id="Слой_1" xmlns="http://www.w3.org/2000/svg" x="0" y="0" viewBox="0 0 19 14" xml:space="preserve"><style>.st0{fill:#fff}</style><path class="st0" d="M16.7 0H2.3C1 0 0 1 0 2.2v9.5C0 13 1 14 2.3 14h14.4c1.3 0 2.3-1 2.3-2.2V2.3C19 1 18 0 16.7 0zm1.2 11.8c0 .7-.6 1.2-1.3 1.2H2.3c-.7 0-1.3-.5-1.3-1.2V2.3c.1-.7.6-1.3 1.3-1.3h14.4c.7 0 1.3.5 1.3 1.2l-.1 9.6z"/><path class="st0" d="M12 6.9l4.6-4c.2-.2.2-.5 0-.7-.2-.2-.5-.2-.8 0L9.5 7.7 8.3 6.6s-.1 0-.1-.1L3.1 2.1c-.2-.2-.6-.2-.8 0-.2.2-.2.5 0 .7L7 6.9l-4.7 4.2c-.2.2-.2.5 0 .7.1.1.2.2.4.2.1 0 .3 0 .4-.1l4.8-4.3 1.3 1.1c.1.1.2.1.4.1s.3 0 .4-.1l1.3-1.1 4.7 4.3c.1.1.2.1.4.1.1 0 .3-.1.4-.2.2-.2.2-.5 0-.7L12 6.9z"/></svg>