<?xml version="1.0" encoding="utf-8"?>
<svg version="1.1" id="Слой_1" xmlns="http://www.w3.org/2000/svg" xmlns:xlink="http://www.w3.org/1999/xlink" x="0px" y="0px"
viewBox="0 0 35 35" style="enable-background:new 0 0 35 35;" xml:space="preserve">
<style type="text/css">
.st0{fill:#ffffff;}
</style>
<path class="st0" d="M31.3,27.9c0.4-0.5,0.6-1.2,0.6-1.8v-4.1c0-0.4-0.3-0.7-0.7-0.7h-3.1c-1.4,0-2.6,1.1-2.6,2.6v2.2	c0,0.7,0.2,1.3,0.6,1.8c-0.5,0.1-0.9,0.2-1.3,0.4c-0.9-1.4-2.5-2.4-4.3-2.6c0,0,0,0,0,0c0.6-0.7,1-1.7,1-2.7v-5.6	c0-0.4-0.3-0.7-0.7-0.7h-4.2c-1.8,0-3.2,1.5-3.2,3.2v3c0,1,0.4,2,1,2.7c0,0,0,0,0,0c-1.8,0.2-3.3,1.1-4.3,2.6	c-0.4-0.2-0.9-0.4-1.3-0.4c0.4-0.5,0.6-1.2,0.6-1.8v-4.1c0-0.4-0.3-0.7-0.7-0.7H5.7c-1.4,0-2.6,1.1-2.6,2.6v2.2	c0,0.7,0.2,1.3,0.6,1.8C1.6,28.2,0,30.1,0,32.3v2C0,34.7,0.3,35,0.7,35h33.6c0.4,0,0.7-0.3,0.7-0.7v-2C35,30.1,33.4,28.2,31.3,27.9z	 M4.5,23.8c0-0.7,0.5-1.2,1.2-1.2h2.4v0.8c0,0.4-0.3,0.7-0.7,0.7H4.5V23.8z M4.5,25.6h2.8c0.3,0,0.5,0,0.7-0.1v0.6	c0,1-0.8,1.8-1.8,1.8c-1,0-1.8-0.8-1.8-1.8V25.6z M6.7,29.2l-0.4,0.4l-0.4-0.4H6.7z M9.2,31.6v2.1H1.4v-1.3c0-1.5,1.1-2.8,2.6-3	l1.8,1.8c0.1,0.1,0.3,0.2,0.5,0.2c0.2,0,0.4-0.1,0.5-0.2l1.9-1.9c0.3,0.1,0.6,0.2,0.9,0.3C9.3,30.2,9.2,30.9,9.2,31.6z M17.5,25.8	c-1.5,0-2.7-1.2-2.7-2.7v-0.9h4.1c0.5,0,0.9-0.1,1.3-0.3v1.2C20.2,24.6,19,25.8,17.5,25.8z M18.7,27.1l-1.2,1.2l-1.2-1.2H18.7z	 M14.8,20.1L14.8,20.1c0-1,0.8-1.9,1.9-1.9h3.5v1.4c0,0.7-0.6,1.3-1.3,1.3h-4.1V20.1z M24.4,33.6h-1.3H11.9h-1.3v-1.4H15	c0.4,0,0.7-0.3,0.7-0.7c0-0.4-0.3-0.7-0.7-0.7h-4.4c0.3-1.9,1.8-3.5,3.8-3.7l2.6,2.6c0.1,0.1,0.3,0.2,0.5,0.2s0.3-0.1,0.5-0.2	l2.6-2.6c2.2,0.3,3.9,2.2,3.9,4.4V33.6z M26.9,23.8c0-0.7,0.5-1.2,1.2-1.2h2.4v0.8c0,0.4-0.3,0.7-0.7,0.7h-2.8V23.8z M26.9,25.6h2.8	c0.3,0,0.5,0,0.7-0.1v0.6c0,1-0.8,1.8-1.8,1.8c-1,0-1.8-0.8-1.8-1.8V25.6z M29.2,29.2l-0.4,0.4l-0.4-0.4H29.2z M25.8,33.6v-2.1	c0-0.7-0.1-1.4-0.4-2c0.3-0.2,0.6-0.3,0.9-0.3l1.9,1.9c0.1,0.1,0.3,0.2,0.5,0.2c0.2,0,0.4-0.1,0.5-0.2l1.8-1.8	c1.5,0.2,2.6,1.5,2.6,3v1.3H25.8z"/><path class="st0" d="M20.9,4.5c-0.3-0.3-0.7-0.3-1,0l-3.4,3.4l-1.5-1.5c-0.3-0.3-0.7-0.3-1,0c-0.3,0.3-0.3,0.7,0,1l1.9,1.9	c0.1,0.1,0.3,0.2,0.5,0.2c0.2,0,0.4-0.1,0.5-0.2l3.8-3.8C21.1,5.2,21.1,4.7,20.9,4.5z"/><path class="st0" d="M20.3,0.6c-0.3-0.2-0.7,0-0.9,0.3c-0.2,0.3,0,0.7,0.3,0.9c2,0.9,3.3,2.9,3.3,5c0,3-2.5,5.5-5.5,5.5	c-3,0-5.5-2.5-5.5-5.5c0-2.2,1.3-4.1,3.2-5c0.3-0.2,0.5-0.6,0.3-0.9c-0.2-0.3-0.6-0.5-0.9-0.3c-2.5,1.1-4,3.6-4,6.3	c0,3.8,3.1,6.9,6.9,6.9c3.8,0,6.9-3.1,6.9-6.9C24.4,4.2,22.8,1.7,20.3,0.6z"/><path class="st0" d="M17.5,0L17.5,0c-0.4,0-0.7,0.3-0.7,0.7c0,0.4,0.3,0.7,0.7,0.7h0c0,0,0,0,0,0c0.4,0,0.7-0.3,0.7-0.7	C18.2,0.3,17.9,0,17.5,0z"/><path class="st0" d="M18,31.1c-0.1-0.1-0.3-0.2-0.5-0.2S17.1,31,17,31.1c-0.1,0.1-0.2,0.3-0.2,0.5s0.1,0.4,0.2,0.5	c0.1,0.1,0.3,0.2,0.5,0.2s0.4-0.1,0.5-0.2c0.1-0.1,0.2-0.3,0.2-0.5S18.1,31.2,18,31.1z"/>
</svg>
