<?xml version="1.0" encoding="utf-8"?>
<svg version="1.1" id="Слой_1" xmlns="http://www.w3.org/2000/svg" xmlns:xlink="http://www.w3.org/1999/xlink" x="0px" y="0px"
viewBox="0 0 35 35" style="enable-background:new 0 0 35 35;" xml:space="preserve">
<style type="text/css">
.st0{fill:#ffffff;}
</style>
<path class="st0" d="M11.1,8.6c-0.1-0.1-0.3-0.2-0.5-0.2s-0.4,0.1-0.5,0.2C10,8.7,9.9,8.9,9.9,9.1c0,0.2,0.1,0.4,0.2,0.5	c0.1,0.1,0.3,0.2,0.5,0.2s0.4-0.1,0.5-0.2c0.1-0.1,0.2-0.3,0.2-0.5C11.3,8.9,11.2,8.7,11.1,8.6z"/><path class="st0" d="M34.8,2.9L34,2l0.8-0.8c0.3-0.3,0.3-0.7,0-1c-0.3-0.3-0.7-0.3-1,0L33,1l-0.8-0.8C32,0.1,31.9,0,31.7,0L20.1,0	c0,0,0,0,0,0c-0.9,0-1.8,0.4-2.4,1l-5.8,5.8c-0.3,0.3-0.3,0.7,0,1c0.3,0.3,0.7,0.3,1,0L18.6,2c0.4-0.4,0.9-0.6,1.5-0.6c0,0,0,0,0,0	l11.3,0L32,2l-2.5,2.5C28.4,3.9,27,4,26.1,5c-0.5,0.5-0.8,1.2-0.8,2s0.3,1.5,0.8,2c0.5,0.5,1.3,0.8,2,0.8c0.7,0,1.4-0.3,2-0.8	C31,8,31.1,6.6,30.5,5.5L33,3l0.6,0.6l0,11.3c0,0.5-0.2,1.1-0.6,1.5L16.3,33c-0.4,0.4-0.9,0.6-1.5,0.6c-0.5,0-1.1-0.2-1.5-0.6	L2,21.6c-0.4-0.4-0.6-0.9-0.6-1.5S1.6,19,2,18.7l7.4-7.4c0.3-0.3,0.3-0.7,0-1c-0.3-0.3-0.7-0.3-1,0L1,17.7c-0.6,0.6-1,1.5-1,2.4	s0.4,1.8,1,2.4L12.5,34c0.7,0.7,1.5,1,2.4,1c0.9,0,1.8-0.3,2.4-1L34,17.3c0.6-0.6,1-1.5,1-2.4l0-11.6C35,3.2,34.9,3,34.8,2.9z	 M29.1,8c-0.3,0.3-0.6,0.4-1,0.4c-0.4,0-0.7-0.1-1-0.4c-0.6-0.6-0.6-1.5,0-2c0.3-0.3,0.6-0.4,1-0.4c0.1,0,0.3,0,0.4,0.1l-0.8,0.8	c-0.3,0.3-0.3,0.7,0,1c0.1,0.1,0.3,0.2,0.5,0.2s0.3-0.1,0.5-0.2l0.8-0.8C29.6,7,29.4,7.6,29.1,8z"/><path class="st0" d="M29.2,13.8l-8-8c-1.1-1.1-2.8-1.1-3.8,0L4.8,18.4C4.3,18.9,4,19.6,4,20.3s0.3,1.4,0.8,1.9l8,8	c0.5,0.5,1.2,0.8,1.9,0.8c0.7,0,1.4-0.3,1.9-0.8l12.6-12.6c0.5-0.5,0.8-1.2,0.8-1.9C30,15,29.7,14.3,29.2,13.8z M28.2,16.6	L15.6,29.2c-0.3,0.3-0.6,0.4-0.9,0.4c-0.4,0-0.7-0.1-0.9-0.4l-8-8c-0.3-0.3-0.4-0.6-0.4-0.9c0-0.4,0.1-0.7,0.4-0.9L18.4,6.8	c0.3-0.3,0.6-0.4,0.9-0.4s0.7,0.1,0.9,0.4l8,8c0.3,0.3,0.4,0.6,0.4,0.9C28.6,16,28.5,16.4,28.2,16.6z"/><path class="st0" d="M22.3,13.7c0.3-0.3,0.3-0.7,0-1c-0.3-0.3-0.7-0.3-1,0l-0.4,0.4c-1.1-0.6-2.4-0.6-3.3,0.3	c-0.5,0.5-0.8,1.2-0.7,1.9c0,0.7,0.3,1.4,0.9,1.9c0,0,0,0,0,0c0.5,0.6,0.6,1.4,0.1,1.9c-0.5,0.5-1.3,0.4-1.9-0.1	c-0.6-0.6-0.6-1.4-0.1-1.9c0.3-0.3,0.3-0.7,0-1c-0.3-0.3-0.7-0.3-1,0c-0.9,0.9-0.9,2.2-0.3,3.3l-0.5,0.5c-0.3,0.3-0.3,0.7,0,1	c0.1,0.1,0.3,0.2,0.5,0.2c0.2,0,0.3-0.1,0.5-0.2l0.5-0.5c0.5,0.3,1,0.4,1.5,0.4c0.7,0,1.3-0.2,1.8-0.7c1-1,0.9-2.7-0.1-3.8	c0,0,0,0,0,0c-0.3-0.3-0.4-0.6-0.5-1c0-0.3,0.1-0.6,0.3-0.9c0.5-0.5,1.3-0.4,1.9,0.1c0,0,0,0,0,0c0,0,0,0,0,0	c0.5,0.6,0.6,1.4,0.1,1.9c-0.3,0.3-0.3,0.7,0,1c0.1,0.1,0.3,0.2,0.5,0.2c0.2,0,0.3-0.1,0.5-0.2c0.9-0.9,0.9-2.2,0.3-3.3L22.3,13.7z"	/>
<path class="st0" d="M15.4,25l-3.5-3.5c-0.3-0.3-0.7-0.3-1,0c-0.3,0.3-0.3,0.7,0,1l3.5,3.5c0.1,0.1,0.3,0.2,0.5,0.2s0.3-0.1,0.5-0.2	C15.6,25.7,15.6,25.3,15.4,25z"/><path class="st0" d="M10,19.6c-0.1-0.1-0.3-0.2-0.5-0.2c-0.2,0-0.4,0.1-0.5,0.2c-0.1,0.1-0.2,0.3-0.2,0.5c0,0.2,0.1,0.4,0.2,0.5	c0.1,0.1,0.3,0.2,0.5,0.2c0.2,0,0.4-0.1,0.5-0.2c0.1-0.1,0.2-0.3,0.2-0.5C10.2,19.9,10.1,19.8,10,19.6z"/></svg>
